<?xml version="1.0" encoding="UTF-8" standalone="no"?>
<svg
     xmlns:dc="http://purl.org/dc/elements/1.1/"
     xmlns:cc="http://creativecommons.org/ns#"
     xmlns:rdf="http://www.w3.org/1999/02/22-rdf-syntax-ns#"
     xmlns:svg="http://www.w3.org/2000/svg"
     xmlns="http://www.w3.org/2000/svg"
     version="1.1"
     id="svg41117"
     viewBox="0 0 200 154.81912"
     height="154.81912"
     width="200"
     preserveAspectRatio="xMidYMid">
    <metadata
         id="metadata41126">
        <rdf:RDF>
            <cc:Work
                 rdf:about="">
                <dc:format>image/svg+xml</dc:format>
                <dc:type
                     rdf:resource="http://purl.org/dc/dcmitype/StillImage" />
                <dc:title></dc:title>
            </cc:Work>
        </rdf:RDF>
    </metadata>
    <defs
         id="defs41119">
        <style
             id="style41121">

      .cls-2 {
        fill: #ffffff;
      }
    </style>
    </defs>
  <path style="fill:#fffff;fill-opacity:1;fill-rule:evenodd" class="cls-2" id="path-1" d="M 197.239 117.962 C 193.371 122.842 183.896 126.322 183.896 126.322 C 183.896 126.322 113.404 151.642 113.404 151.642 C 113.404 151.642 113.404 132.97 113.404 132.97 C 113.404 132.97 165.281 114.486 165.281 114.486 C 171.168 112.376 172.072 109.395 167.287 107.829 C 162.511 106.26 153.862 106.71 147.971 108.828 C 147.971 108.828 113.404 121.002 113.404 121.002 C 113.404 121.002 113.404 101.623 113.404 101.623 C 113.404 101.623 115.397 100.949 115.397 100.949 C 115.397 100.949 125.385 97.414 139.431 95.858 C 153.476 94.311 170.673 96.069 184.174 101.187 C 199.389 105.995 201.102 113.082 197.239 117.962 Z M 120.115 86.166 C 120.115 86.166 120.115 38.413 120.115 38.413 C 120.115 32.805 119.08 27.642 113.818 26.181 C 109.789 24.89 107.288 28.632 107.288 34.235 C 107.288 34.235 107.288 153.819 107.288 153.819 C 107.288 153.819 75.038 143.583 75.038 143.583 C 75.038 143.583 75.038 1 75.038 1 C 88.75 3.545 108.727 9.563 119.467 13.183 C 146.779 22.56 156.039 34.231 156.039 60.527 C 156.039 86.157 140.218 95.871 120.115 86.166 L 120.115 86.166 Z M 15.862 131.018 C 0.243 126.619 -2.357 117.454 4.763 112.174 C 11.342 107.299 22.532 103.629 22.532 103.629 C 22.532 103.629 68.773 87.187 68.773 87.187 C 68.773 87.187 68.773 105.932 68.773 105.932 C 68.773 105.932 35.497 117.841 35.497 117.841 C 29.619 119.95 28.715 122.936 33.492 124.501 C 38.272 126.066 46.925 125.621 52.812 123.507 C 52.812 123.507 68.773 117.715 68.773 117.715 C 68.773 117.715 68.773 134.485 68.773 134.485 C 67.761 134.665 66.632 134.845 65.589 135.02 C 49.623 137.629 32.619 136.54 15.862 131.018 L 15.862 131.018 Z"></path>
</svg>
